<?xml version="1.0" encoding="utf-8"?>
<!-- Generator: Adobe Illustrator 23.0.5, SVG Export Plug-In . SVG Version: 6.00 Build 0)  -->
<svg version="1.1" id="b5fd0f28-1473-49d3-b766-fd4b3ddcb807"
	 xmlns="http://www.w3.org/2000/svg" xmlns:xlink="http://www.w3.org/1999/xlink" x="0px" y="0px" viewBox="0 0 1118 765.7"
	 style="enable-background:new 0 0 1118 765.7;" xml:space="preserve">
<style type="text/css">
	.st0{opacity:0.1;fill:#FAAB36;enable-background:new    ;}
	.st1{fill:#5F5D7E;}
	.st2{opacity:0.1;enable-background:new    ;}
	.st3{fill:#FAAB36;}
	.st4{fill:#474157;}
	.st5{fill:#FFD037;}
	.st6{fill:#65617D;}
	.st7{fill:#9D9CB5;}
	.st8{fill:#C8CAD7;}
	.st9{fill:#FD5901;}
	.st10{fill:#FFFFFF;}
	.st11{fill:#EDEDF4;}
	.st12{fill:url(#SVGID_1_);}
	.st13{fill:#67647E;}
	.st14{fill:#444053;}
	.st15{fill:#EFB7B9;}
	.st16{fill:#A36468;}
	.st17{fill:#B07473;}
	.st18{fill:#E1E7EF;}
	.st19{opacity:0.2;enable-background:new    ;}
	.st20{opacity:0.1;fill:#FFFFFF;enable-background:new    ;}
	.st21{fill:#585268;}
	.st22{opacity:0.1;}
</style>
<title>quitting time</title>
<path class="st0" d="M649.6,113.2c-71.7-2.3-139.9-23.5-205.1-46.8s-129.8-49-199.7-61.3c-45-7.9-96.4-9-132.7,13.1
	c-34.9,21.3-46.2,58.1-52.2,92.2c-4.6,25.7-7.2,52.7,5.2,76.7c8.7,16.7,24.1,30.7,34.7,46.7c37.1,55.6,10.9,124.2-29.3,178.5
	c-18.8,25.4-40.7,49.8-55.2,76.9S-6,547.5,6.7,575.2c12.6,27.4,42.7,48,75.2,62.5c66.1,29.4,144,37.8,220,42.6
	c168.1,10.6,337.1,6,505.7,1.4c62.4-1.7,125-3.4,186.4-12.3c34.1-4.9,69.3-12.7,94-31.6c31.4-23.9,39.2-64.4,18.2-94.4
	c-35.3-50.3-132.9-62.8-157.6-116.8c-13.6-29.7,0.4-62.8,20.1-90.4c42.3-59.1,113.3-111,117.1-178.5c2.6-46.4-31.6-92.9-84.3-114.8
	c-55.3-23-132-20.1-172.8,18C786.7,100.1,712.9,115.2,649.6,113.2z"/>
<ellipse class="st0" cx="802.9" cy="744.7" rx="129" ry="21"/>
<polygon class="st1" points="295.4,389.6 295.1,407.2 292.5,550.2 270,602.7 192.8,603.6 192.8,397.7 273.4,391.3 "/>
<polygon class="st2" points="295.4,389.6 295.1,407.2 292.5,550.2 270,602.7 192.8,603.6 192.8,397.7 273.4,391.3 "/>
<polygon class="st1" points="295.4,389.6 295.1,407.2 292.5,550.2 270,602.7 275.9,407.5 275.9,407.4 273.4,391.3 "/>
<polygon class="st2" points="273.4,391.3 295.4,389.6 295.1,407.2 275.9,407.4 192.8,408.3 192.8,397.7 "/>
<polygon class="st1" points="989.7,397.7 989.7,602.4 971.7,602.4 899.8,549.9 899.8,391.9 964,385.9 968,387.7 971.7,389.4 "/>
<rect x="971.7" y="387.7" class="st2" width="18" height="214.7"/>
<polygon class="st2" points="989.7,387.7 989.7,399.5 971.7,399.7 899.8,400.5 899.8,391.9 964,385.9 968,387.7 971.7,389.4 
	971.7,387.7 "/>
<polygon class="st1" points="989.7,381 989.7,397.7 106.1,407.5 106.1,386.3 189.3,369.5 912.7,364.2 "/>
<polygon class="st2" points="989.7,381 989.7,397.7 106.1,407.5 106.1,386.3 "/>
<ellipse class="st2" cx="256.7" cy="374.9" rx="39.8" ry="2.5"/>
<path class="st3" d="M290.1,276.3c-0.8,1.2-1.5,2.4-2,3.8c-0.1,0.3-0.2,0.7-0.4,1.1c-0.2-0.1-0.5-0.2-0.7-0.2
	c-1-0.3-2.1-0.4-3.1-0.3c0-0.4,0-0.8,0.1-1.3c0.1-4.7-0.4-11.2-4.9-8.4c-4.3,2.6-1.2,7.1,1.5,9.9c0.2,0.3,0.5,0.5,0.7,0.7
	c-2.5,1.8-3,6-3.4,10.3s-4.1,9.1-6.5,11.8l-0.7,0.8c-2-1.6-4.6-2.3-7.1-1.8c-0.1-0.4-0.2-0.8-0.3-1.2c-2-7.1-6.1-19.5-11.3-22.3
	l0.7-0.9c2.2-2.9,4.7-7.3,1-8.4c-3.7-1.1-4,3.8-3.8,7.4c0,0.5,0.1,0.9,0.1,1.3c-1.5,0.1-2.9,0.8-3.9,1.9c-0.2-0.2-0.4-0.4-0.6-0.7
	c-3-3.5-8.5-9.2-10.2-4.9c-1.5,4,3.3,9.1,6.7,12.1l0.2,0.2c-2.3,9.3,7.7,16.9,13.1,20.2l0.7,0.4c-7.4,8.8-12,25.2-12,25.2l20.8,3.7
	c0,0,13.8-11.9,12-23.1h0.1c13.8-2.8,16.9-17.5,14.8-26.2l0.3-0.1c2.5-1,4.7-2.7,6.4-4.8C302.2,277.1,294.1,271,290.1,276.3z"/>
<path class="st2" d="M290.1,276.3c-0.8,1.2-1.5,2.4-2,3.8c-0.1,0.3-0.2,0.7-0.4,1.1c-0.2-0.1-0.5-0.2-0.7-0.2
	c-1-0.3-2.1-0.4-3.1-0.3c0-0.4,0-0.8,0.1-1.3c0.1-4.7-0.4-11.2-4.9-8.4c-4.3,2.6-1.2,7.1,1.5,9.9c0.2,0.3,0.5,0.5,0.7,0.7
	c-2.5,1.8-3,6-3.4,10.3s-4.1,9.1-6.5,11.8l-0.7,0.8c-2-1.6-4.6-2.3-7.1-1.8c-0.1-0.4-0.2-0.8-0.3-1.2c-2-7.1-6.1-19.5-11.3-22.3
	l0.7-0.9c2.2-2.9,4.7-7.3,1-8.4c-3.7-1.1-4,3.8-3.8,7.4c0,0.5,0.1,0.9,0.1,1.3c-1.5,0.1-2.9,0.8-3.9,1.9c-0.2-0.2-0.4-0.4-0.6-0.7
	c-3-3.5-8.5-9.2-10.2-4.9c-1.5,4,3.3,9.1,6.7,12.1l0.2,0.2c-2.3,9.3,7.7,16.9,13.1,20.2l0.7,0.4c-7.4,8.8-12,25.2-12,25.2l20.8,3.7
	c0,0,13.8-11.9,12-23.1h0.1c13.8-2.8,16.9-17.5,14.8-26.2l0.3-0.1c2.5-1,4.7-2.7,6.4-4.8C302.2,277.1,294.1,271,290.1,276.3z"/>
<path class="st3" d="M248.7,282.3l-2.4,7.1c0,0-1.4-1-3.1-2.5c-3.4-3-8.3-8.1-6.7-12.1c1.7-4.3,7.2,1.4,10.2,4.9
	C247.9,281.2,248.7,282.3,248.7,282.3z"/>
<path class="st3" d="M253.8,278.2c-0.7,1-1.5,1.9-2.4,2.8c-0.2-1.2-0.4-2.5-0.4-3.8c-0.2-3.6,0.2-8.5,3.8-7.4
	C258.5,271,256.1,275.3,253.8,278.2z"/>
<path class="st3" d="M285.2,279.3c-0.1,2.3-0.3,4.2-0.3,4.2c-1.1-0.8-2.1-1.7-3-2.7c-2.8-2.9-5.8-7.3-1.5-9.9
	C284.8,268.2,285.3,274.7,285.2,279.3z"/>
<path class="st3" d="M299.6,282.4c-1.7,2.1-3.9,3.8-6.4,4.8c-0.7,0.3-1.4,0.6-2.1,0.8l-2.9-4c0.3-1.3,0.7-2.6,1.2-3.9
	c0.5-1.4,1.2-2.6,2-3.8C295.4,271,303.4,277.1,299.6,282.4z"/>
<path class="st2" d="M246.7,279.8c1.2,1.4,2,2.5,2,2.5l-2.4,7.1c0,0-1.4-1-3.1-2.5c0.4-2.3,1.3-4.4,2.7-6.3
	C246.2,280.4,246.4,280.1,246.7,279.8z"/>
<path class="st2" d="M253.8,278.2c-0.7,1-1.5,1.9-2.4,2.8c-0.2-1.2-0.4-2.5-0.4-3.8C252.1,277.3,253,277.6,253.8,278.2z"/>
<path class="st3" d="M265.8,306.5l-6,2.7c-1.1-0.6-2.2-1.2-3.2-1.8c-6.4-3.9-19.1-13.8-10.6-25.4s15.7,9.2,18.5,19.4
	C265.3,304.4,265.8,306.5,265.8,306.5z"/>
<path class="st2" d="M281.9,280.9c0.9-0.9,2.1-1.4,3.3-1.5c-0.1,2.3-0.3,4.2-0.3,4.2C283.8,282.7,282.8,281.8,281.9,280.9z"/>
<path class="st2" d="M293.2,287.3c-0.7,0.3-1.4,0.6-2.1,0.8l-2.9-4c0.3-1.3,0.7-2.6,1.2-3.9C291.2,281.2,292.6,283.9,293.2,287.3z"
	/>
<path class="st3" d="M278.2,313.5c-0.3,0.1-0.7,0.1-1,0.2c-20.3,3.1-6.7-7.9-6.7-7.9s0.9-0.8,2.1-2.2c2.4-2.7,6.1-7.4,6.5-11.8
	c0.6-6.6,1.4-12.7,9.1-10.9S297.4,309.7,278.2,313.5z"/>
<rect x="239.1" y="364" class="st4" width="38.8" height="10.2"/>
<rect x="232.9" y="330.9" class="st4" width="50.6" height="35.6"/>
<rect x="238.7" y="364" class="st2" width="38.8" height="10.2"/>
<rect x="232.7" y="330.9" class="st2" width="50.6" height="35.6"/>
<rect x="241.6" y="364" class="st4" width="38.7" height="10.2"/>
<path class="st2" d="M264.5,301.4c0.9,3,1.3,5.1,1.3,5.1l-6,2.7c-1.1-0.6-2.2-1.2-3.2-1.8C258.9,304.3,261.6,302.1,264.5,301.4z"/>
<path class="st2" d="M278.2,313.5c-0.3,0.1-0.7,0.1-1,0.2c-20.3,3.1-6.7-7.9-6.7-7.9s0.9-0.8,2.1-2.2
	C276.4,306.7,278,310.1,278.2,313.5z"/>
<path class="st3" d="M245.2,332.9c0,0,11.4-40.6,27.3-28.1s-6.5,31.8-6.5,31.8L245.2,332.9z"/>
<circle class="st2" cx="250.9" cy="288.3" r="1.3"/>
<circle class="st2" cx="250.8" cy="294.3" r="1.3"/>
<circle class="st2" cx="287.8" cy="289.5" r="1.3"/>
<circle class="st2" cx="258.1" cy="320" r="1.3"/>
<circle class="st2" cx="285.1" cy="299.4" r="1.3"/>
<circle class="st2" cx="272" cy="312.5" r="1.3"/>
<circle class="st2" cx="255.3" cy="290.9" r="1.3"/>
<circle class="st2" cx="284.3" cy="293.3" r="1.3"/>
<circle class="st2" cx="279.9" cy="303.2" r="1.3"/>
<circle class="st2" cx="266.5" cy="319" r="1.3"/>
<circle class="st2" cx="263.8" cy="312.8" r="1.3"/>
<circle class="st2" cx="257.2" cy="298.6" r="1.3"/>
<rect x="241.6" y="364" class="st2" width="38.7" height="3.7"/>
<rect x="235.4" y="330.9" class="st4" width="50.6" height="35.6"/>
<circle class="st2" cx="268.3" cy="324.8" r="1.3"/>
<circle class="st2" cx="260.6" cy="326.3" r="1.3"/>
<path class="st3" d="M382,466.8c0,0,6.3,8.3-2.9,20.7s-16.8,23-13.8,30.7c0,0,13.9-23.1,25.2-23.5S394.4,480.7,382,466.8z"/>
<path class="st2" d="M382,466.8c0.5,0.8,1,1.7,1.3,2.6c11,13,16.9,25.1,6.3,25.4c-9.9,0.3-21.8,18-24.6,22.4c0.1,0.3,0.2,0.7,0.3,1
	c0,0,13.9-23.1,25.2-23.5S394.4,480.7,382,466.8z"/>
<path class="st5" d="M393.7,477.3c0,2.9-0.3,5.3-0.7,5.3s-0.7-2.3-0.7-5.3s0.4-1.5,0.8-1.5S393.7,474.4,393.7,477.3z"/>
<path class="st5" d="M397.7,480.8c-2.5,1.4-4.8,2.2-5,1.9s1.7-1.8,4.3-3.2s1.5-0.4,1.7,0S400.3,479.4,397.7,480.8z"/>
<path class="st3" d="M348.6,466.8c0,0-6.3,8.3,2.9,20.7s16.8,23,13.8,30.7c0,0-13.9-23.1-25.2-23.5S336.2,480.7,348.6,466.8z"/>
<path class="st2" d="M348.6,466.8c-0.6,0.8-1,1.7-1.3,2.6c-11.1,13-16.9,25.1-6.3,25.4c9.9,0.3,21.8,18,24.6,22.4
	c-0.1,0.3-0.2,0.7-0.3,1c0,0-13.9-23.1-25.2-23.5S336.2,480.7,348.6,466.8z"/>
<path class="st5" d="M336.9,477.3c0,2.9,0.3,5.3,0.7,5.3s0.7-2.3,0.7-5.3s-0.4-1.5-0.8-1.5S336.9,474.4,336.9,477.3z"/>
<path class="st5" d="M332.9,480.8c2.5,1.4,4.8,2.2,5,1.9s-1.7-1.8-4.3-3.2s-1.5-0.4-1.7,0S330.3,479.4,332.9,480.8z"/>
<ellipse class="st0" cx="365.3" cy="571.2" rx="66" ry="10.1"/>
<path class="st6" d="M399.3,507.1l-0.3,2.6l-0.4,3.6l-0.2,1.5l-0.4,3.7l-0.2,1.5l-0.4,3.6l-5,41.4c-0.5,3.7-6.5,6.6-13.8,6.6h-26.2
	c-7.3,0-13.3-2.9-13.8-6.6l-5.1-41.4l-0.4-3.6l-0.2-1.5l-0.5-3.7l-0.2-1.5l-0.4-3.6l-0.3-2.6c-0.3-2.1,3-3.8,7.1-3.8h53.6
	C396.3,503.3,399.5,505,399.3,507.1z"/>
<polygon class="st7" points="399,509.7 398.5,513.3 332.1,513.3 331.7,509.7 "/>
<polygon class="st7" points="398.3,514.8 397.9,518.5 332.7,518.5 332.3,514.8 "/>
<polygon class="st7" points="397.7,520 397.3,523.7 333.4,523.7 332.9,520 "/>
<path class="st8" d="M565.5,366.5v2.1h-60.9v-1.7c7.9-2.9,13.1-10.4,13.1-18.8c0-7.8-4.6-14.9-11.7-18.2h59.1
	c-10.1,4.6-14.5,16.4-9.9,26.5C557.2,361,560.9,364.6,565.5,366.5L565.5,366.5z"/>
<path class="st2" d="M565.1,330c-5.5,2.5-9.6,7.4-11,13.3h-37c-1.5-5.9-5.6-10.7-11.1-13.3H565.1z"/>
<path class="st8" d="M434.8,319.5V331c0,6.4,4.7,11.6,10.4,11.6h179.2c5.8,0,10.4-5.2,10.4-11.6v-11.6H434.8z"/>
<path class="st2" d="M565.5,366.5v2.1h-60.9v-1.7c1.7-0.6,3.3-1.5,4.7-2.5h52.5C562.9,365.3,564.2,366,565.5,366.5z"/>
<path class="st8" d="M487.5,365.1h95.1c1.7,0,3,1.4,3,3v0c0,1.7-1.4,3-3,3h-95.1c-1.7,0-3-1.4-3-3v0
	C484.4,366.4,485.8,365.1,487.5,365.1z"/>
<path class="st1" d="M634.9,192.8c0-5.8-4.7-10.4-10.4-10.4l0,0H445.3c-5.8,0-10.4,4.7-10.4,10.4l0,0v128.9h200.1V192.8z"/>
<path class="st9" d="M629.4,197.4v110.8c0,2.8-2.3,5.1-5.1,5.1l0,0H445.4c-2.8,0-5.1-2.3-5.1-5.1v0V197.4c0-0.9,0.3-1.8,0.7-2.6
	c0.9-1.6,2.6-2.6,4.5-2.6h178.8C627.1,192.3,629.4,194.6,629.4,197.4z"/>
<circle class="st10" cx="534.9" cy="187.3" r="2.4"/>
<circle class="st10" cx="534.9" cy="331.5" r="5.9"/>
<path class="st10" d="M629.4,197.4H440.3c0-2.8,2.3-5.1,5.1-5.1h0h178.9C627.1,192.3,629.4,194.6,629.4,197.4L629.4,197.4z"/>
<circle class="st11" cx="445.4" cy="194.8" r="1.3"/>
<circle class="st11" cx="449.3" cy="194.8" r="1.3"/>
<circle class="st11" cx="453.1" cy="194.8" r="1.3"/>
<linearGradient id="SVGID_1_" gradientUnits="userSpaceOnUse" x1="1420.6471" y1="-55.9918" x2="1420.6471" y2="665.0814" gradientTransform="matrix(-1 0 0 -1 2222.01 698.75)">
	<stop  offset="0" style="stop-color:#808080;stop-opacity:0.25"/>
	<stop  offset="0.54" style="stop-color:#808080;stop-opacity:0.12"/>
	<stop  offset="1" style="stop-color:#808080;stop-opacity:0.1"/>
</linearGradient>
<path class="st12" d="M657,421.9c0,0,12,4.9,26.7,10.7c0.5,1.7,0.9,3.4,1.2,5.1c0.3,3.4,7,8.2,7,8.2s12.5,2.3,21.9,4.9
	c7.3,2,8.3-2,7.4-3.6l2.2,0.8c0.5,20.2,1,35,1,35s3.2,0,8.3,0.2c0.1,0.6,0.1,1.3,0.2,2c1.9,20,5.5,53,8.2,55.7
	c4,3.9,2.2,32.4,0.7,37.4s0,41.3,0,41.3s6.2,22.2,5.7,46.3s6.7,36.8,6.7,36.8l2.6,0.2c0,0.7-0.1,1.3-0.1,2c-0.1,2.2-0.2,4.4-0.2,6.4
	c-0.2,3-1.2,6-3,8.4c-4.1,5.9-7,12.7-8.4,19.8c-0.3,1.6-0.5,3.2-0.6,4.8c0,0.4,0,0.6,0,0.6s2.4,7.1,24.9,9.4s19.3-13.9,19.3-13.9
	s0.1-0.5,0.3-1.3c1-5.5,1-11.1,0.1-16.7c-0.8-4.3-0.1-11.7,0.9-18.6c0.1-0.7,0.2-1.4,0.3-2.1c1.9-0.4,3.7-1.2,5.2-2.4
	c7-6.4,0-57.5,0-57.5s-12.7-41.8-9.6-47.9s6.7-20.7,6.7-20.7v-50.9c5-8.1,7.3-19.1,8.2-29.2c0.1-0.7,0.1-1.3,0.2-2
	c4.2,0.1,8.2-0.1,11.8-0.3l1,2c5.9,11.4,11.9,22.8,13.4,24.4c3.1,3.5,0.5,19.7,0,27.7s5.7,24.2,5.7,24.2c-7.7,4.5-9.3,57.9-9.3,57.9
	s5.7,13.1-6.2,27.7s-7.2,42.3-5.7,41.3c0.4-0.3,2.9,0.1,6.5,0.7c-0.6,2.4-1.8,4.6-3.4,6.5c-3.8,4.8-5.1,12.2-5.5,18.2
	c-0.2,3.1-0.2,6.2,0,9.3l8.6,6c0,0,5.3,0,5.3,4.7s13.1,9.4,13.1,9.4s19.4,5.4,34.4,0c4.8-1.7,6.3-4.7,5.8-8.4
	c-1.2-7.6-11.3-18-18.7-25.6c-4.9-5.1-7.2-11.9-8.2-17.8c-0.1-0.6-0.2-1.3-0.3-1.9c0.6-0.3,1.1-0.8,1.6-1.3
	c6.2-7.6,12.9-28.2,12.9-28.2s-3.1-21.1,3.6-40.3c5-14.2,11.1-47.5,13.9-63.7c1-5.9,1.2-11.9,0.6-17.9c-1.3-11.9-3.3-33.9-2.6-51.4
	c0.2-5.7,0.1-14.7-0.3-25.3v-0.2c3.7-6.9,11.6-18.2,24.9-19.2c19.3-1.3,9.3-11.9,9.3-11.9s-11.3-79.3-18.7-93.4
	c-0.1-0.2-0.2-0.5-0.4-0.7c-1.1-1.8-2.3-5.3-3.6-9.9c-7.3-27-16.7-93.7-16.7-93.7l-1.2-16.2c11.5,5.6,32.8,15.9,41.4,18.9
	c12,4.2,28.7,1.5,32.8-12.3s-13.1-41.6-13.1-41.6c-2.5-9.9-20-30.4-29.1-40.7c-0.9-1.3-1.8-2.6-2.6-3.9c-2.3-3.5-4.5-6.6-5.8-8.4
	l-0.1,0.3c-0.3-0.5-0.6-0.9-0.9-1.3l-0.2,0.4c-3.3-6-6.9-12.2-9.7-15.5c-6.6-7.7-35.3-15.9-38.1-13.7c-2.1,1.6,6.5,8.9,12.5,13.3
	l-5.7-3.9L840.7,105l-5.7-3.8c-0.2-0.2-0.5-0.3-0.7-0.4c3-11.7,0.6-24.1-6.5-33.9c-0.4-0.6-0.8-1.1-1.3-1.6
	c5.9-4.9,7.8-13.1,7.8-20.2v-0.3c-0.4-2.7-1.6-5.2-3.4-7.2c0.1,0.2,0.2,0.4,0.3,0.6c-2.1-2.7-5.3-4.3-8.7-4.4
	c-5-0.1-9.2,3.2-13.6,5.4c-9.1,4.6-19.8,4.9-29.3,1c-2.7-1.2-5.4-2.7-8.4-2.5s-5.3,2.1-7.3,4.1c-4.8,4.6-8.6,10.2-11.1,16.4
	c-0.7,1.8-1.4,3.7-2.8,5.1c-1.1,0.9-2.3,1.7-3.5,2.3c-4.4,2.8-7.4,7.2-8.4,12.3c-0.9,5-0.4,10.1,1.5,14.9c1.2,3.3,3.1,6.2,5.5,8.6
	c1.9,1.7,4.1,3,6.1,4.6c0.9,0.7,1.7,1.5,2.5,2.4c-9,2-17.2,6.5-23.7,13.1c-4.8,4.7-8.9,10.1-12,16.1c-8.4,15.7-13.5,25.5-16.5,31.7
	c-1.5,0.5-2.4,0.7-2.4,0.7s-11.3,10.1-11.2,38.9l0,0l-8.8,57.8v29.5c0,0-11.3,32.1-9.4,58.6c0,0.4,0,0.7,0.1,1.1l-0.9,4.5
	c-1.4,1.9-2.1,4.3-2,6.7c-0.1,0.8,0,1.6,0.2,2.4l-4.6,22.7l0.9,0.9l-2.4,6.7C652.2,414.1,657,421.9,657,421.9z M723.3,259.9
	c0.6,0.4,0.9,0.6,0.9,0.6s5,44.8,2,71.4l-10.5-0.7l-5-1.5l1.8-14.2C712.5,315.3,718.9,277.9,723.3,259.9L723.3,259.9z M764.7,129.9
	l1-1.5c-0.2,0.6-0.4,1.1-0.6,1.6L764.7,129.9z M717.2,331.6l5.5,0.6l3.5,0.7c-0.1,0.5-0.1,0.9-0.2,1.4L717.2,331.6z M834.3,138.1
	c0-0.5,0-1-0.1-1.5l4.3,2.5l0.3,0.2C837.3,138.8,835.8,138.5,834.3,138.1L834.3,138.1z M867.5,157.9c-0.6-0.9-1.2-1.8-1.9-2.7
	c3,0.7,4.9,1.1,4.9,1.1c2.4-0.4,4.9-0.2,7.1,0.7c0.7,1.5,1.6,2.9,2.5,4.3l7.9,15.3c0,0-1.7,0.2-5.2-1.5S867.5,157.9,867.5,157.9z
	 M717.4,445.9l2.5,1l0,0C719.4,447,718.5,446.6,717.4,445.9z"/>
<path class="st13" d="M803,117.1c3.2,1.9,3.3,9.9,2.8,16.3c-0.3,4.7-1,8.5-1,8.5l20.7,50.3c0,0,7.7-35.8,7.8-51.8
	c0-1.3-0.2-2.5-0.6-3.7C829.1,125.2,808.8,118.8,803,117.1z"/>
<path class="st13" d="M801.5,116.7c0,0,0.6,0.1,1.5,0.4C802.6,116.9,802.1,116.7,801.5,116.7z"/>
<path class="st13" d="M808.7,729.1l8.3,6c0,0,5.2,0,5.2,4.7s12.7,9.3,12.7,9.3s18.8,5.3,33.3,0c4.7-1.7,6.1-4.7,5.6-8.3
	c-1.2-7.5-11-17.8-18.1-25.4c-4.8-5.1-7-11.8-7.9-17.7c-0.7-4.2-0.9-8.4-0.6-12.7l-30.5-2.2c1.7,4.6,1.7,9.7,0,14.3
	c-0.7,1.6-1.6,3.2-2.7,4.6c-3.7,4.7-5,12.1-5.4,18C808.5,722.9,808.5,726,808.7,729.1z"/>
<path class="st13" d="M746,742.9c0,0,2.3,7,24.2,9.3s18.7-13.8,18.7-13.8s0.1-0.5,0.3-1.3c0.9-5.5,1-11.1,0.1-16.5
	c-0.8-4.3-0.1-11.7,0.8-18.4c1.1-8.1,2.7-15.3,2.7-15.3l-33.8,2.5c0,0-0.6,6.9-0.9,13.8c-0.1,2.2-0.2,4.3-0.2,6.3
	c-0.2,3-1.2,5.9-2.9,8.3c-4,5.9-6.8,12.6-8.1,19.6c-0.3,1.6-0.5,3.2-0.6,4.8C746,742.7,746,742.9,746,742.9z"/>
<path class="st13" d="M808.7,729.1l8.3,6c0,0,5.2,0,5.2,4.7s12.7,9.3,12.7,9.3s18.8,5.3,33.3,0c4.7-1.7,6.1-4.7,5.6-8.3
	c-0.5,0-0.9,0.1-1.2,0.1c-5.9,0.2-11.7,1.8-17.6,2.3c-3.4,0.2-6.7,0.3-10.1,0.2c-1.7,0-3.3-0.1-5-0.4c-4-0.7-7.7-2.8-11.3-4.8
	c-0.9-0.4-1.6-1-2.3-1.8c-0.5-0.8-0.8-1.7-1-2.7c-1.3-4.5-4.8-8.1-8.8-10.5c-2.5-1.4-5.1-2.5-7.8-3.3
	C808.5,722.9,808.5,726,808.7,729.1z"/>
<path class="st13" d="M746,742.9c0,0,2.3,7,24.2,9.3s18.7-13.8,18.7-13.8s0.1-0.5,0.3-1.3c-1,0.5-1.8,1-2.2,1.2
	c-2,1.2-3.8,2.8-5.9,3.9c-5,2.6-11,1.8-16.6,1c-2.7-0.4-5.3-0.8-7.9-1.3c-2-0.3-4-0.9-5.8-1.7c-1.4-0.8-2.7-1.7-3.9-2.7
	c-0.3,1.6-0.5,3.2-0.6,4.8C746,742.7,746,742.9,746,742.9z"/>
<path class="st2" d="M808.7,729.1l8.3,6c0,0,5.2,0,5.2,4.7s12.7,9.3,12.7,9.3s18.8,5.3,33.3,0c4.7-1.7,6.1-4.7,5.6-8.3
	c-0.5,0-0.9,0.1-1.2,0.1c-5.9,0.2-11.7,1.8-17.6,2.3c-3.4,0.2-6.7,0.3-10.1,0.2c-1.7,0-3.3-0.1-5-0.4c-4-0.7-7.7-2.8-11.3-4.8
	c-0.9-0.4-1.6-1-2.3-1.8c-0.5-0.8-0.8-1.7-1-2.7c-1.3-4.5-4.8-8.1-8.8-10.5c-2.5-1.4-5.1-2.5-7.8-3.3
	C808.5,722.9,808.5,726,808.7,729.1z"/>
<path class="st2" d="M746,742.9c0,0,2.3,7,24.2,9.3s18.7-13.8,18.7-13.8s0.1-0.5,0.3-1.3c-1,0.5-1.8,1-2.2,1.2
	c-2,1.2-3.8,2.8-5.9,3.9c-5,2.6-11,1.8-16.6,1c-2.7-0.4-5.3-0.8-7.9-1.3c-2-0.3-4-0.9-5.8-1.7c-1.4-0.8-2.7-1.7-3.9-2.7
	c-0.3,1.6-0.5,3.2-0.6,4.8C746,742.7,746,742.9,746,742.9z"/>
<path class="st2" d="M816.7,682.9c1.7,4.6,1.7,9.7,0,14.3c8.8,1.5,25.1,4.5,31.1,0.5c-0.7-4.2-0.9-8.4-0.6-12.7L816.7,682.9z"/>
<path class="st2" d="M757.9,703.3c6.2,0.4,22.8,1.3,32.1-1.1c1.1-8.1,2.7-15.3,2.7-15.3l-33.8,2.5
	C758.8,689.4,758.3,696.3,757.9,703.3z"/>
<path class="st14" d="M733.5,470.1c0,0,0.5,6.3,1.3,15c1.9,19.9,5.3,52.7,8,55.3c3.8,3.8,2.2,32.2,0.7,37.2s0,41,0,41
	c3.8,15,5.6,30.5,5.5,46c-0.5,24,6.5,36.5,6.5,36.5s33,3,39.8-3.4s0-57.1,0-57.1s-12.4-41.5-9.4-47.5s6.5-20.5,6.5-20.5v-50.5
	c4.8-8,7-19,7.9-28.9c0.7-8.5,0.8-17.1,0.1-25.6c0,0,6.2,12.7,12.5,25.3c5.7,11.3,11.5,22.6,13,24.2c3,3.5,0.5,19.5,0,27.5
	s5.5,24,5.5,24c-7.5,4.5-9,57.5-9,57.5s5.5,13-6,27.5s-7,42-5.5,41s32,7.5,38,0s12.5-28,12.5-28s-3-21,3.5-40
	c4.8-14.1,10.7-47.1,13.5-63.3c1-5.9,1.1-11.8,0.5-17.8c-1.3-11.8-3.2-33.7-2.5-51c0.2-5.7,0.1-14.6-0.3-25.2
	c-1.3-36.1-5.2-90.3-5.2-90.3l-27.1-18.4L826,348.6l-4.4,0.7L740,361.9l-3.2,40.3L733.5,470.1z"/>
<path class="st2" d="M843.9,360.7l1.4,7.9c0,0,12,57.5,14.5,87s13,21,13,21c0.9-2.5,2-4.9,3.4-7.2c-1.3-36.1-5.2-90.3-5.2-90.3
	L843.9,360.7z"/>
<path class="st15" d="M758.2,142.6c0,0,56,44.8,45.7,35.8c-5.7-4.9-1.8-26,2.8-44c3.8-14.9,8.2-27.6,8.2-27.6S766,61,769.5,98.4
	c1.3,13.2,0.2,22.6-1.7,29.2C764.4,139.7,758.2,142.6,758.2,142.6z"/>
<path class="st2" d="M762.9,130.7l35.5,27.8l10.3-11.5c0,0,8.8-3.8,9.5,0.5s3.2,31-2,33.5s-11.8,4.2-17.7,3.3s-12.3-7.3-16.7-9.8
	s-20.3-15.5-20.3-15.5l-8-11.2L762.9,130.7z"/>
<path class="st16" d="M762.9,131.7l35.5,27.8l10.3-11.5c0,0,8.8-3.8,9.5,0.5s3.2,31-2,33.5s-11.8,4.2-17.7,3.3s-12.3-7.3-16.7-9.8
	s-20.3-15.5-20.3-15.5l-8-11.2L762.9,131.7z"/>
<path class="st2" d="M733.5,470.1c0,0,0.5,6.3,1.3,15c11,0.4,32.3,1.7,47.3,5.6c6,1.5,12.1,2.3,18.3,2.4c0.7-8.5,0.8-17.1,0.1-25.6
	c0,0,6.2,12.7,12.5,25.3c5.4-0.4,10.8-1.1,16.1-2.1l-6.7-86.7c0,0,0.2-29.1-0.9-54.8L740,361.9l-3.2,40.3L733.5,470.1z"/>
<path class="st2" d="M794.9,156.1c0,0-24.3-26.5-30-22.3s-9.5,14.5-9.5,14.5l19.8,21.7L794.9,156.1z"/>
<path class="st16" d="M793.9,155.1c0,0-24.3-26.5-30-22.3s-9.5,14.5-9.5,14.5l19.8,21.7L793.9,155.1z"/>
<path class="st2" d="M814,172.1l-14-17.6c0,0,2.2-16.6,7.3-14.5s6.7,10.6,6.7,10.6V172.1z"/>
<path class="st16" d="M815,170.9l-13.9-17.6c0,0,2.2-16.6,7.3-14.5s6.6,10.6,6.6,10.6V170.9z"/>
<path class="st2" d="M750.9,139.4c0,0,28.7,31,45.8,33.1c1.5,0.2,3.1,0.4,4.6,0.8c4.5,0.9,14.2,0,12.7-25.6l2.2-4.5l13.3,8.2
	l4.5,36.7l8,94l11.8,104.7c0,0-36.3-3.5-46.5,5.7s-13-50-13-50l-27.8-120l-29.7-77.2L750.9,139.4z"/>
<path class="st2" d="M736.9,149.1l29.7,77.2l27.8,120c0,0,2.8,59.2,13,50c3.3-3,9.4-4.6,16.2-5.5c8.3-0.9,16.6-1.1,24.9-0.6
	c3.3,0.2,5.4,0.4,5.4,0.4L842,285.9l-8-94l-4.5-36.7l-13.3-8.2l-2.2,4.5c0,0.7,0.1,1.3,0.1,2c0.9,23.7-8.4,24.5-12.8,23.7
	c-1.5-0.3-3.1-0.6-4.6-0.8c-12.1-1.5-30.1-17.5-39.5-26.6c-3.9-3.8-6.3-6.4-6.3-6.4L736.9,149.1z"/>
<path class="st3" d="M736.9,146.1l29.7,77.2l27.8,120c0,0,2.8,59.2,13,50c3.3-3,9.4-4.6,16.2-5.5c8.3-0.9,16.6-1.1,24.9-0.6
	c3.3,0.2,5.4,0.4,5.4,0.4L842,282.9l-8-94l-4.5-36.7l-13.3-8.2l-2.2,4.5c0,0.7,0.1,1.3,0.1,2c0.9,23.7-8.4,24.5-12.8,23.7
	c-1.5-0.3-3.1-0.6-4.6-0.8c-12.1-1.5-30.1-17.5-39.5-26.6c-3.9-3.8-6.3-6.4-6.3-6.4L736.9,146.1z"/>
<path class="st2" d="M814,148.6c0,0.7,0.1,1.3,0.1,2l0.2,0.2c3.5,2.3,9.2,41.5,9.2,41.5l7.3,99.8l13.5,74.5c0,0,1.8,8.5,4.1,20.6
	c3.3,0.2,5.4,0.4,5.4,0.4L842,282.9l-8-94l-4.5-36.7l-13.3-8.2L814,148.6z"/>
<path class="st13" d="M804.8,141.9c0,0,8,6.5,11.5,8.8s9.2,41.5,9.2,41.5l7.3,99.8l13.5,74.5c0,0,12,57.5,14.5,87s13,21,13,21
	s7.8-23,26.5-24.3s9-11.8,9-11.8s-10.9-78.8-18.1-92.8c-0.1-0.2-0.2-0.5-0.4-0.7c-1.1-1.7-2.2-5.2-3.5-9.9
	c-7.1-26.8-16.2-93-16.2-93l-5.7-82C851,136.4,806,137.2,806,137.2L804.8,141.9z"/>
<path class="st2" d="M736.9,146.1l29.7,77.2l27.8,120c0,0,2.8,59.2,13,50c3.3-3,9.4-4.6,16.2-5.5c-0.1-20.3-0.7-56.8-3.7-72.2
	c-2.5-14-3.6-28.3-3.2-42.5l-36.3-79.2c0,0-27.3-33.7-27.5-38.5c-0.1-1.8,1.9-5.1,4.3-8.6c-3.9-3.8-6.3-6.4-6.3-6.4L736.9,146.1z"/>
<path class="st13" d="M828.2,488.8l-6.7-86.7c0,0,0.5-64.7-3.7-86.5c-2.5-14-3.6-28.3-3.2-42.5l-36.3-79.2c0,0-27.3-33.7-27.5-38.5
	s14.3-20.9,14.3-20.9s-31.6,3.7-35.8,17.9s-27,19.7-27,19.7s-11,10-10.8,38.7s35,51.2,35,51.2s5.8,54,0.8,78.3s-0.7,142.7-0.7,142.7
	s33.5,0.3,54.5,5.8S828.2,488.8,828.2,488.8z"/>
<path class="st17" d="M778.9,351.3l-25.7,97.2c0,0-3.5,8.7-21.5,2s-70.3-28.3-70.3-28.3s-4.7-7.7,4-21.8l26.2-76.7L778.9,351.3z"/>
<polygon class="st18" points="745.7,394.2 704.2,348.6 677.7,337.8 666.8,392.7 717.2,447.5 "/>
<path class="st15" d="M701.3,409.4c0,0,12.3,7.3,15.6,7.5s14.7,21.9,9.9,21.8s-16.1-6-15-3s8.5,12,10.6,11.1s3.1,6.6-6,4
	s-21.3-4.9-21.3-4.9s-6.5-4.8-6.8-8.1s-5.9-21.1-5.9-21.1L701.3,409.4z"/>
<path class="st15" d="M899.4,153.4c0,0-10.7-23.1-17.1-30.7s-34.2-15.8-37-13.6s14,14.9,17,16.5s-19.4,16.7-19.8,17
	s-17.5-1.5-8.8,4.2s34.6,11.6,34.6,11.6c3.5-0.6,7.1,0.3,10,2.4C883.4,164.6,899.4,153.4,899.4,153.4z"/>
<path class="st2" d="M677.2,410.6c1.4,4.6,3.3,9.1,5.7,13.4c2.5-2.3,26.4-10.1,26.4-10.1l-2.7-4.1l-4.3-6.7c0,0-21.3-4.6-24.9,0
	C676.2,404.6,676.4,407.5,677.2,410.6z"/>
<path class="st16" d="M676.2,409.6c1.4,4.6,3.3,9.1,5.7,13.4c2.5-2.3,26.4-10.1,26.4-10.1l-2.7-4.1l-4.3-6.7c0,0-21.3-4.6-24.9,0
	C675.2,403.6,675.4,406.5,676.2,409.6z"/>
<path class="st2" d="M875,158.7c0.8,1.7,1.7,3.4,2.7,4.9c3.8,6.1,9.7,13.2,9.7,13.2s22.7-10.5,22.7-10.9s-6.9-11.3-12.5-19.9
	c-2.3-3.5-4.3-6.5-5.6-8.3c0,0-8.5,17.8-16.9,17.9C872.9,155.6,874.1,156.5,875,158.7z"/>
<path class="st16" d="M876,159.7c0.8,1.7,1.7,3.4,2.7,4.9c3.8,6.1,9.7,13.2,9.7,13.2s22.7-10.5,22.7-10.9s-6.9-11.3-12.5-19.9
	c-2.3-3.5-4.3-6.5-5.6-8.3c0,0-8.5,17.8-16.9,17.9C873.9,156.6,875.1,157.5,876,159.7z"/>
<polygon class="st17" points="747.8,343.1 750.7,334.3 709.7,331.5 725,333.1 744.5,337.3 743,343.1 "/>
<path class="st2" d="M676.2,409.6c4.5-2.1,16.6-6.6,29.4-0.9l-4.3-6.7c0,0-21.3-4.6-24.9,0C675.2,403.6,675.4,406.5,676.2,409.6z"/>
<path class="st13" d="M673.9,355.6c0.1,1.5,0.2,2.9,0.3,4.3c0.3,4.4,0.4,8.8,0.5,13c0.5,19.5-0.3,35.7-0.3,35.7s15.5-9.3,32-1.5
	l1.7-31.6v-0.5l1.7-13.8l5.5-44.7c0,0,10.3-62,13.5-64.3s-23.5-52.5-23.5-52.5l-13.7,11.2l-8.5,57.3v29.3
	C683,297.4,672,329.3,673.9,355.6z"/>
<path class="st2" d="M875.5,158.2l3.2,6.4c3.8,6.1,9.7,13.2,9.7,13.2s22.7-10.5,22.7-10.9s-6.9-11.3-12.5-19.9
	c-1.7-2-2.8-3.1-2.8-3.1C902.5,160.4,875.5,158.2,875.5,158.2z"/>
<path class="st13" d="M856.2,155.4l9.3,4.7c0,0,11.5,15.5,14.8,17.2s5,1.5,5,1.5l-9.8-19.5c0,0,27,2.2,20.3-14.3
	c0,0,30.2,33,33.5,46.3c0,0,16.7,27.7,12.7,41.3s-20.2,16.3-31.8,12.2s-47.5-22.5-47.5-22.5L856.2,155.4z"/>
<path class="st2" d="M889.7,187.9c0,0,25.2,28.2,23.2,32S891,193.6,889.7,187.9z"/>
<path class="st19" d="M776.1,112.1c0,0-35.4-10.7-55.4,27.8s-20.7,41.2-19.7,43s39.8-8.3,42-3.8s-22,23-22,23l93.7,71l-39.3-83.6
	c-2.6-5.9-6.2-11.3-10.5-16.1c-6.5-7.2-15.3-18.3-12.2-21.8c2.8-3,7.2-10.8,13.1-19.8C770.2,125.2,777.1,117.7,776.1,112.1z"/>
<path class="st13" d="M777.1,111.1c0,0-35.4-10.7-55.4,27.8s-20.7,41.2-19.7,43s39.8-8.3,42-3.8s-22,23-22,23l92.7,72l-38.3-84.6
	c-2.6-5.9-6.2-11.3-10.5-16.1c-6.5-7.2-15.3-18.3-12.2-21.8c2.8-3,7.2-10.8,13.1-19.8C771.2,124.2,778.1,116.7,777.1,111.1z"/>
<path class="st2" d="M777.1,111.1c0,0-35.4-10.7-55.4,27.8s-20.7,41.2-19.7,43s39.8-8.3,42-3.8s-22,23-22,23l92.7,72l-40.2-88.7
	c-1.6-3.4-3.7-6.6-6.2-9.4c-6.3-6.8-18.1-20.5-14.6-24.4c2.8-3,7.2-10.8,13.1-19.8C771.2,124.2,778.1,116.7,777.1,111.1z"/>
<circle class="st14" cx="769.8" cy="280.2" r="7.3"/>
<circle class="st14" cx="769.8" cy="325.7" r="7.3"/>
<path class="st13" d="M674.7,372.9c4.2,1,24.2,0.5,33.3,2.5v-0.5l1.7-13.8c-10.3-1.3-32.6-3.7-35.6-1.2
	C670.2,363.3,669.6,371.8,674.7,372.9z"/>
<path class="st2" d="M674.7,373.9c4.2,1,24.2,0.5,33.3,2.5v-0.5l1.7-13.8c-10.3-1.3-32.6-3.7-35.6-1.2
	C670.2,364.3,669.6,372.8,674.7,373.9z"/>
<path class="st2" d="M674.7,372.9c4.2,1,24.2,0.5,33.3,2.5v-0.5l1.7-13.8c-10.3-1.3-32.6-3.7-35.6-1.2
	C670.2,363.3,669.6,371.8,674.7,372.9z"/>
<circle class="st14" cx="679" cy="366.2" r="4.4"/>
<path class="st20" d="M762.5,383.9l-18.7,63.7c0,0-5,2.3-5-1.8S762.5,383.9,762.5,383.9z"/>
<path class="st2" d="M769.7,124.5c1.2,0.9,2.4,1.8,3.7,2.6c6.3,4,12,9.4,20.1,9.4c4.5,0,9-0.7,13.2-2.2c3.8-14.9,8.2-27.6,8.2-27.6
	S766,61,769.5,98.4C770.8,111.6,771.5,117.9,769.7,124.5z"/>
<path class="st15" d="M752.4,93.5c0,22.7,18.4,41.1,41.1,41.1s41.1-18.4,41.1-41.1s-18.4-41.1-41.1-41.1l0,0
	c-22.6-0.1-41,18.1-41.1,40.7C752.4,93.2,752.4,93.4,752.4,93.5z"/>
<path class="st18" d="M816.7,127.9c0.4,0.9,1.1,1.7,1.9,2.3l6.5,4l12.2,7.4l19.3,11.7c0.5,0.3,0.9,0.5,1.4,0.8
	c4.6,2.3,10,2.4,14.6,0.2c3.5-1.6,6.1-4.7,6.8-8.5c1-5.3-1-10.7-5.2-14c-0.1-0.1-0.2-0.2-0.4-0.2c-4.1-1.2-8-3-11.4-5.6l-12.1-8.4
	l-10.8-9.9l-5.5-3.8c-1.6-1.1-3.8-1.2-5.5-0.2C822.9,106.9,811.7,115.2,816.7,127.9z"/>
<path class="st16" d="M825.2,134l12.2,7.4c2.5-10.2,9-17.5,14.6-22.9l-12.4-11C830.1,112.2,826.3,127.9,825.2,134z"/>
<path class="st2" d="M858,153.9c4.6,2.3,10,2.4,14.6,0.2c3.5-1.6,6.1-4.7,6.8-8.5c1-5.3-1-10.7-5.2-14c-3,1.3-5.8,3-8.3,5.2
	c-3.4,3-5.9,6.9-7.2,11.3C858.3,150,858,152,858,153.9z"/>
<path class="st2" d="M752.4,93.5c0,6,1.3,11.9,3.8,17.3c2.5,2.5,4.4,5.5,5.5,8.8c2.8,3.4,3.9,5.3,7.6,7.6c1.5-1.6,4.8-2.5,5.5-4.6
	c1.5-5.2,0.7-10.8,0.6-16.3c0-2.4,0.3-5.3,2.5-6.4c1.8-1,4-0.3,5.7,0.7s3.5,2.3,5.5,2.5c3,0.3,5.7-1.8,7.4-4.3s2.7-5.4,4.2-7.9
	c2.1-3.4,5.2-5.9,8.3-8.4c3.5-2.9,6.9-6.1,10.6-8.6c2.2-1.6,4.9-2.3,7.1-3.8l0.3-0.3c-13.1-18.5-38.7-22.9-57.2-9.8
	C758.9,67.7,752.4,80.2,752.4,93.5L752.4,93.5z"/>
<path class="st21" d="M833.3,48.1c-0.9-5.8-5.6-11.2-11.5-11.3c-4.8-0.1-8.9,3.2-13.2,5.4c-8.8,4.6-19.2,4.9-28.4,1
	c-2.6-1.2-5.3-2.7-8.1-2.4s-5.1,2.1-7.1,4c-4.7,4.6-8.3,10.2-10.8,16.3c-0.7,1.8-1.4,3.7-2.7,5.1c-1.1,0.9-2.2,1.6-3.4,2.3
	c-4.2,2.8-7.1,7.2-8.1,12.2c-0.9,5-0.4,10.1,1.5,14.8c1.1,3.2,3,6.1,5.4,8.5c1.8,1.7,4,3,5.9,4.6c6.3,5.4,9.4,13.7,8,21.9
	c5.3,1.2,10.4-3.5,12-8.8s0.7-10.8,0.6-16.3c0-2.4,0.3-5.3,2.5-6.4c1.8-1,4-0.3,5.7,0.7s3.5,2.2,5.5,2.5c3,0.3,5.7-1.8,7.4-4.3
	s2.6-5.4,4.2-7.9c2.1-3.4,5.2-5.9,8.3-8.4c3.5-2.9,6.9-6.1,10.6-8.6c2.2-1.6,4.9-2.3,7.1-3.8C831.3,64.3,833.3,55.7,833.3,48.1z"/>
<path class="st2" d="M801.5,116.7c0,0,0.6,0.1,1.5,0.4C802.6,116.9,802.1,116.7,801.5,116.7z"/>
<g class="st22">
	<path d="M770.8,118.4c1.5-5.2,0.7-10.8,0.6-16.3c0-2.4,0.3-5.3,2.5-6.4c1.8-1,4-0.3,5.7,0.7s3.5,2.3,5.5,2.5c3,0.3,5.7-1.8,7.4-4.3
		s2.6-5.4,4.2-7.9c2.1-3.4,5.2-5.9,8.3-8.4c3.5-2.9,6.9-6.1,10.6-8.6c2.2-1.6,4.9-2.3,7.1-3.8c6.6-4.7,8.7-13.4,8.7-20.9
		c-0.2-1.4-0.7-2.9-1.3-4.2c1.8,2,2.9,4.5,3.3,7.2c0,7.6-2,16.2-8.7,20.9c-2.2,1.6-4.8,2.3-7.1,3.8c-3.7,2.6-7.1,5.8-10.6,8.6
		c-3,2.5-6.2,5.1-8.3,8.4c-1.6,2.5-2.5,5.4-4.2,7.9s-4.4,4.6-7.4,4.3c-2-0.2-3.7-1.5-5.5-2.5s-4-1.7-5.7-0.7c-2.1,1.2-2.5,4-2.5,6.4
		c0.1,5.4,1,11-0.6,16.3s-6.7,10-12,8.8c0.2-0.9,0.3-1.9,0.3-2.8C765.5,126.9,769.5,122.9,770.8,118.4z"/>
	<path d="M744.9,100.6c1.8,1.7,4,3,5.9,4.6c2.1,1.8,3.9,3.9,5.2,6.3c-1-1.2-2-2.3-3.2-3.3c-1.9-1.6-4.1-2.9-5.9-4.6
		c-1.5-1.4-2.7-3-3.6-4.8C743.8,99.5,744.3,100.1,744.9,100.6z"/>
</g>
<path class="st2" d="M800.2,457.6c0.7,2.2,1.8,4.3,1.9,6.6c0.2,3.9-2.1,7.5-2.3,11.4c-0.2,4.5,2.6,8.6,5.2,12.3
	c-3.1,0-6.5-1.1-8.1-3.8c-0.5-1-0.9-2.1-1.2-3.3c-2.8-11.3-5.6-23.6-0.7-34.2c0.8-1.8,1.9-3.5,3.3-4.9
	C799.1,447.1,798.4,452.3,800.2,457.6z"/>
<path class="st2" d="M878.4,377.9l8.3-11.2c2-2.7,4.1-5.5,4.8-8.8c0.8-3.6-0.1-7.4-0.3-11c0-0.4,0-0.8,0-1.3
	c-0.1-0.2-0.2-0.5-0.4-0.7c-1.1-1.7-2.2-5.2-3.5-9.9c-1.2,1.2-2.2,2.7-2.8,4.3c-3.9,9.4-0.3,20.5-3.5,30.2
	C880.2,372.3,878.7,375,878.4,377.9z"/>
<path class="st2" d="M857.2,717.3c-8.3,6-18.8,8-28.7,5.7"/>
<path class="st2" d="M788.4,718.9c-8.5,8-21.8,7.5-29.8-1c-0.3-0.3-0.6-0.7-0.9-1"/>
<path class="st2" d="M832.3,568.2c8.2,1.9,16.6-1.9,20.8-9.2"/>
<path class="st2" d="M784.9,593.4c-6.3,0.5-12.6-1.3-17.8-4.9"/>
<path class="st2" d="M817.2,653.9c5.3,2.2,10.1,5.5,15.3,8s11.2,4.1,16.7,2.4"/>
<ellipse class="st1" cx="529.3" cy="644.1" rx="85.1" ry="24.5"/>
<ellipse class="st2" cx="529.3" cy="636.2" rx="17" ry="4.9"/>
<rect x="519.9" y="506.7" class="st1" width="17.5" height="129.5"/>
<path class="st2" d="M537.4,513.1v15c-3.5-1.1-11.5-5.6-17.5-9.2v-12.2h3.7L537.4,513.1z"/>
<path class="st4" d="M496.1,450.3c0,0,57.8-14.9,72.2-26s70.8,41.3,63.4,61s-34.6,34.1-34.6,34.1s-75.1,12.2-87.9-13.3
	S496.1,450.3,496.1,450.3z"/>
<path class="st2" d="M496.1,450.3c0,0,57.8-14.9,72.2-26s70.8,41.3,63.4,61s-34.6,34.1-34.6,34.1s-75.1,12.2-87.9-13.3
	S496.1,450.3,496.1,450.3z"/>
<path class="st4" d="M491.1,444.3c0,0,57.8-14.9,72.2-26s70.8,41.3,63.4,61s-34.6,34.1-34.6,34.1s-75.1,12.2-87.9-13.3
	S491.1,444.3,491.1,444.3z"/>
<path class="st2" d="M609.9,342.4c-0.2,0-0.4,0-0.6-0.1C609.5,342.3,609.7,342.4,609.9,342.4z"/>
<path class="st4" d="M438.7,400.1c-5.8-1.4-21.7-2.7-29.3,22.7c-1.8,5.9-4,11.6-6.7,17.2c-7.3,14.9-16.6,45.6,24.6,52.3l99,22.5
	c0,0,53,6.5,56.5,4s3-8,3-8s-58.5,0-70-18s-12-42.5-12-42.5s1.4-37.8-59-48.8C442.8,401,440.8,400.6,438.7,400.1z"/>
<path class="st2" d="M438.7,400.2c-5.8-1.4-21.7-2.7-29.3,22.7c-1.8,5.9-4,11.6-6.7,17.2c-7.3,14.9-16.6,45.6,24.6,52.3l99,22.5
	c0,0,53,6.5,56.5,4s3-8,3-8s-58.5,0-70-18s-12-42.5-12-42.5s1.4-37.8-59-48.8C442.8,401.2,440.8,400.7,438.7,400.2z"/>
<path class="st4" d="M646.3,374.2c-1.2-7.6-7.8-13.1-15.5-12.9c-12.7,0.2-49,1.8-71.1,11.6c-4.9,2.1-9.7,4.2-14.7,6
	c-4.5,1.6-9.9,4.2-12.6,7.9s-65.5,52,25,98.5c0,0,48.5,13.8,67.5-18.6c0,0,13.5-34.8,12.5-46.9s9-44.5,9-44.5
	S646.4,374.9,646.3,374.2z"/>
<path class="st2" d="M646.3,383c-1.1-7-7.8-12.1-15.5-11.9c-14.2,0.2-58.1,2-78.4,14.3c0,0-15.5,9.2-20,9.2s-65.5,48,25,90.9
	c0,0,48.5,12.7,67.5-17.2c0,0,13.5-32.1,12.5-43.3s9-41.1,9-41.1S646.4,383.6,646.3,383z"/>
<rect x="581.9" y="485.2" class="st1" width="16" height="34.1"/>
<image style="overflow:visible;" width="448" height="448" xlink:href="D:\ngampus\MPPL\mokap\partner-logo.png"  transform="matrix(0.2074 0 0 0.2074 488.8637 208.1337)">
</image>
</svg>
